<?xml version="1.0" standalone="no"?>
<!DOCTYPE svg PUBLIC "-//W3C//DTD SVG 20010904//EN"
 "http://www.w3.org/TR/2001/REC-SVG-20010904/DTD/svg10.dtd">
<svg version="1.0" xmlns="http://www.w3.org/2000/svg"
 width="266.000000pt" height="266.000000pt" viewBox="0 0 266.000000 266.000000"
 preserveAspectRatio="xMidYMid meet">
<metadata>
Created by potrace 1.14, written by Peter Selinger 2001-2017
</metadata>
<g transform="translate(0.000000,266.000000) scale(0.100000,-0.100000)"
fill="#000000" stroke="none">
<path d="M1202 2459 c-265 -44 -457 -213 -537 -471 -39 -127 -47 -239 -34
-438 3 -44 43 -183 69 -239 32 -67 103 -172 142 -207 70 -63 198 -136 260
-148 13 -2 43 -9 68 -16 83 -22 256 -15 428 19 23 5 42 8 43 7 0 0 3 -104 5
-231 4 -235 -3 -301 -34 -364 -33 -68 -121 -92 -202 -56 -32 15 -39 25 -81
138 -45 118 -47 122 -78 125 l-31 3 2 -167 3 -167 53 -18 c72 -25 105 -30 197
-34 216 -8 362 131 381 365 3 36 6 273 8 527 1 254 6 466 10 470 4 4 42 19 84
33 l77 25 0 40 0 40 -307 2 -308 2 0 -42 0 -43 114 -28 c99 -24 114 -30 118
-49 2 -12 3 -104 3 -205 -1 -183 -1 -184 -25 -203 -93 -73 -269 -113 -395 -90
-237 44 -362 253 -370 621 -6 290 49 477 176 595 64 58 136 91 222 101 29 3
57 7 62 8 10 3 135 -10 165 -17 127 -30 145 -45 215 -181 54 -103 63 -116 86
-116 15 0 29 6 31 13 2 6 5 87 7 178 l2 166 -53 11 c-78 18 -96 21 -173 33
-92 14 -336 19 -403 8z"/>
</g>
</svg>
