<svg width="103" height="102" viewBox="0 0 103 102" fill="none" xmlns="http://www.w3.org/2000/svg">
<path d="M30.6528 22.1959C26.8294 22.8417 25.2881 23.2596 22.7259 24.3422C22.1854 24.5701 21.685 24.76 21.6449 24.76C21.5849 24.76 20.7041 25.2159 19.6832 25.7667C14.0183 28.8816 9.4343 33.7629 6.9121 39.4229C5.79112 41.9111 5.39078 43.3166 4.71018 46.9823C4.42994 48.5018 4.42994 52.8703 4.71018 54.3897C5.39078 58.0555 5.79112 59.461 6.9121 61.9491C8.91384 66.4505 12.4169 70.6671 16.6806 73.744C17.6815 74.4847 21.3847 76.612 21.6449 76.612C21.685 76.612 22.1854 76.8019 22.7259 77.0299C25.3482 78.1315 26.8695 78.5303 30.8529 79.1951C32.4543 79.461 37.0584 79.461 38.6597 79.1951C42.7833 78.5113 44.2246 78.1125 47.0471 76.9159L48.3082 76.3651L46.947 75.2635C46.1863 74.6367 44.9853 73.5731 44.2846 72.8893C43.0235 71.6927 42.9635 71.6547 42.2829 71.8447C36.1976 73.649 29.8521 73.2882 24.6676 70.838C22.4256 69.7744 21.685 69.3375 19.8834 67.932C14.4387 63.7345 11.2158 57.3337 11.2158 50.686C11.2158 47.4951 12.1166 43.7914 13.5179 41.1134C14.6388 38.9861 15.0992 38.2833 16.5805 36.5739C21.0044 31.4077 27.7502 28.3498 34.7563 28.3498C38.1193 28.3498 42.0227 29.2045 44.8451 30.534C47.0871 31.5977 47.8277 32.0345 49.6293 33.44C55.074 37.6376 58.2968 44.0383 58.2968 50.686C58.2968 55.0355 57.0157 59.0051 54.3134 63.1267L53.8129 63.9054L54.9539 64.9311C56.4152 66.2226 58.7773 67.6851 59.1776 67.5332C59.638 67.3622 61.6598 64.0764 62.6006 61.9491C63.7216 59.461 64.1219 58.0555 64.8025 54.3897C64.9226 53.744 65.0227 52.0725 65.0227 50.686C65.0227 49.2995 64.9226 47.6281 64.8025 46.9823C64.1019 43.2026 63.6815 41.7591 62.5205 39.271C62.2803 38.7582 62.0801 38.2833 62.0801 38.2454C62.0801 38.1884 61.5997 37.3527 61.0192 36.384C57.7364 31.0089 52.5919 26.6594 46.6267 24.2662C44.0044 23.2026 42.5231 22.8227 38.6597 22.1769C37.1785 21.93 32.1341 21.949 30.6528 22.1959Z" fill="#B1C3C0"/>
<path d="M64.2856 22.1959C60.5423 22.8417 58.6407 23.3545 55.9984 24.4941L54.8574 24.988L56.3186 26.2225C57.1193 26.8873 58.3004 27.9509 58.961 28.5777C60.1019 29.6983 60.162 29.7173 60.8426 29.5274C66.9679 27.723 73.2934 28.0839 78.4779 30.534C80.7199 31.5977 81.4605 32.0345 83.2621 33.44C88.7069 37.6376 91.9297 44.0383 91.9297 50.686C91.9297 53.8769 91.0289 57.5806 89.6277 60.2587C88.5067 62.3859 88.0463 63.0887 86.565 64.7981C82.1411 69.9643 75.3953 73.0222 68.3892 73.0222C65.0262 73.0222 61.1228 72.1675 58.3004 70.838C56.0584 69.7744 55.3178 69.3375 53.5162 67.932C48.0715 63.7345 44.8487 57.3337 44.8487 50.686C44.8487 46.3365 46.1298 42.3669 48.8321 38.2454L49.3326 37.4666L48.1916 36.441C46.7303 35.1494 44.3682 33.6869 43.9679 33.8389C43.5075 34.0098 41.4857 37.2957 40.5449 39.4229C39.4239 41.9111 39.0236 43.3166 38.343 46.9823C38.0628 48.5018 38.0628 52.8703 38.343 54.3897C39.0236 58.0555 39.4239 59.461 40.5449 61.9491C42.5467 66.4505 46.0497 70.6671 50.3134 73.744C51.3143 74.4847 55.0175 76.612 55.2777 76.612C55.3178 76.612 55.8182 76.8019 56.3587 77.0299C58.981 78.1315 60.5023 78.5303 64.4858 79.1951C66.0872 79.461 70.6912 79.461 72.2926 79.1951C76.276 78.5303 77.7974 78.1315 80.4196 77.0299C80.9601 76.8019 81.4605 76.612 81.5006 76.612C81.5606 76.612 82.4414 76.1562 83.4623 75.6053C89.1272 72.4904 93.7112 67.6091 96.2334 61.9491C97.3544 59.461 97.7547 58.0555 98.4353 54.3897C98.5554 53.744 98.6555 52.0725 98.6555 50.686C98.6555 49.2995 98.5554 47.6281 98.4353 46.9823C97.7347 43.2026 97.3144 41.7591 96.1533 39.271C95.9131 38.7582 95.713 38.2833 95.713 38.2454C95.713 38.1884 95.2325 37.3527 94.652 36.384C91.3692 31.0089 86.2247 26.6594 80.2595 24.2662C77.6372 23.2026 76.1559 22.8227 72.2926 22.1769C70.8113 21.93 65.7669 21.949 64.2856 22.1959Z" fill="#B1C3C0"/>
</svg>
