<svg width="80" height="71" viewBox="0 0 80 71" fill="none" xmlns="http://www.w3.org/2000/svg">
<path d="M66.0714 2.75264C65.6275 1.23073 64.0236 0.358052 62.5 0.796218V0.796218L40.5343 7.0181L39.798 7.23864C38.7191 7.56184 38.0957 8.68755 38.3943 9.77359V9.77359L17.7657 3.81901V3.81901C16.2419 3.37875 14.6408 4.25261 14.1971 5.77543V5.77543L6.16 32.9663C5.18857 36.3332 4.59714 40.3541 5.71429 44.2527C6.61714 47.4092 8.88572 50.4405 12.4114 52.2519L10.6336 58.6509C10.186 60.2619 8.5077 61.1961 6.90261 60.7276L4.35607 59.9845C2.83728 59.5412 1.24683 60.4136 0.804252 61.9325V61.9325C0.360584 63.4552 1.23896 65.0486 2.76339 65.4863L19.2132 70.2096C20.7351 70.6467 22.324 69.7709 22.7672 68.2507V68.2507C23.2114 66.7268 22.3368 65.1311 20.8131 64.686L18.2048 63.9239C16.6269 63.4628 15.7139 61.818 16.1573 60.2351L17.9457 53.85C19.7356 54.0016 21.5377 53.7883 23.2419 53.2231C24.946 52.6579 26.5165 51.7527 27.8571 50.5628C30.8943 47.8528 32.6 44.2413 33.5714 40.8745L40.6257 17.4145L46.4286 37.9455V38.0308C47.4 41.3977 49.1086 45.0091 52.1429 47.7191C54.62 49.9286 58.08 51.2623 62.0543 50.9182L63.8517 57.3965C64.2904 58.9777 63.3773 60.618 61.8022 61.0782L59.1885 61.8418C57.6642 62.2872 56.7894 63.8839 57.2346 65.4083V65.4083C57.6784 66.928 59.2671 67.8031 60.7888 67.3662L77.2354 62.6431C78.7603 62.2052 79.6386 60.611 79.1941 59.0881V59.0881C78.7508 57.5695 77.1603 56.6979 75.6418 57.1416L73.0709 57.8927C71.475 58.359 69.8043 57.4385 69.3459 55.8403L67.5 49.4054C71.0257 47.5968 73.2914 44.5627 74.1971 41.4091C75.3114 37.5105 74.8114 33.4895 73.84 30.1227L66.0714 2.75264V2.75264ZM61.4286 7.01526L65 19.7263H47.1429L44.9114 11.7272L61.4286 7.01526ZM18.9286 10.129L35.3571 14.75L33.0343 22.57H15.1771L18.9286 10.129ZM48.7514 25.4136H66.6086L68.3943 31.7236C69.1629 34.3682 69.4314 37.5105 68.7514 39.8991C68.0686 42.2878 66.7743 43.9655 63.3029 44.9636C59.8314 45.9646 57.8343 45.1968 55.9829 43.5418C54.1286 41.8868 52.6457 39.0773 51.8743 36.4327L48.7514 25.4136ZM13.4829 28.2573H31.34L28.1257 39.2764H28.0371C27.2657 41.9209 25.8714 44.7305 24.0171 46.3855C22.1657 48.0405 20.1686 48.8082 16.6971 47.8073C13.2257 46.8063 11.9314 45.1314 11.2486 42.7428C10.5686 40.3541 10.8371 37.209 11.6057 34.5673L13.4829 28.2573Z" fill="#B1C3C0"/>
</svg>
