<svg width="85" height="86" viewBox="0 0 85 86" fill="none" xmlns="http://www.w3.org/2000/svg">
<path d="M21.25 8.46875C21.25 7.76427 20.9701 7.08864 20.472 6.5905C19.9739 6.09235 19.2982 5.8125 18.5938 5.8125C17.8893 5.8125 17.2136 6.09235 16.7155 6.5905C16.2174 7.08864 15.9375 7.76427 15.9375 8.46875V24.4062C15.9369 27.468 16.9941 30.4359 18.9303 32.8077C20.8664 35.1795 23.5626 36.8095 26.5625 37.4219V77.5312C26.5625 78.2357 26.8424 78.9114 27.3405 79.4095C27.8386 79.9076 28.5143 80.1875 29.2188 80.1875C29.9232 80.1875 30.5989 79.9076 31.097 79.4095C31.5951 78.9114 31.875 78.2357 31.875 77.5312V37.4219C34.8749 36.8095 37.5711 35.1795 39.5072 32.8077C41.4434 30.4359 42.5006 27.468 42.5 24.4062V8.46875C42.5 7.76427 42.2201 7.08864 41.722 6.5905C41.2239 6.09235 40.5482 5.8125 39.8438 5.8125C39.1393 5.8125 38.4636 6.09235 37.9655 6.5905C37.4674 7.08864 37.1875 7.76427 37.1875 8.46875V24.4062C37.1884 26.0549 36.6779 27.6632 35.7264 29.0095C34.7749 30.3558 33.4293 31.3739 31.875 31.9234V8.46875C31.875 7.76427 31.5951 7.08864 31.097 6.5905C30.5989 6.09235 29.9232 5.8125 29.2188 5.8125C28.5143 5.8125 27.8386 6.09235 27.3405 6.5905C26.8424 7.08864 26.5625 7.76427 26.5625 8.46875V31.9234C25.0082 31.3739 23.6626 30.3558 22.7111 29.0095C21.7596 27.6632 21.2491 26.0549 21.25 24.4062V8.46875ZM58.4375 77.5312V43H50.4688C49.7643 43 49.0886 42.7201 48.5905 42.222C48.0924 41.7239 47.8125 41.0482 47.8125 40.3438V19.0938C47.8125 15.5716 49.5444 12.2778 51.9084 9.90844C54.2778 7.54438 57.5716 5.8125 61.0938 5.8125C61.7982 5.8125 62.4739 6.09235 62.972 6.5905C63.4701 7.08864 63.75 7.76427 63.75 8.46875V77.5312C63.75 78.2357 63.4701 78.9114 62.972 79.4095C62.4739 79.9076 61.7982 80.1875 61.0938 80.1875C60.3893 80.1875 59.7136 79.9076 59.2155 79.4095C58.7174 78.9114 58.4375 78.2357 58.4375 77.5312Z" fill="#B1C3C0"/>
</svg>
