<svg width="103" height="102" viewBox="0 0 103 102" fill="none" xmlns="http://www.w3.org/2000/svg">
<g clip-path="url(#clip0_649_24847)">
<path d="M78.713 15.5119C78.3492 15.2514 77.927 15.084 77.4835 15.0244C77.0401 14.9648 76.5887 15.0147 76.169 15.1699L76.187 15.1639L42.956 26.9779C42.4183 27.1701 41.953 27.5237 41.6239 27.9903C41.2947 28.4569 41.1177 29.0138 41.117 29.5849V68.1049C39.4187 67.177 37.5143 66.6911 35.579 66.6919H35.576C32.7674 66.5785 30.0277 67.5792 27.9533 69.4761C25.8789 71.3729 24.6377 74.0124 24.5 76.8199V76.8439C24.6323 79.6594 25.8739 82.3081 27.9533 84.211C30.0327 86.1138 32.7808 87.1162 35.597 86.9989H35.576C38.3846 87.1122 41.1243 86.1116 43.1987 84.2147C45.2731 82.3179 46.5143 79.6784 46.652 76.8709V38.1979L74.342 28.5289V55.4479C72.6428 54.5226 70.7388 54.0379 68.804 54.0379H68.801C65.9925 53.9238 63.2527 54.9242 61.1786 56.8213C59.1045 58.7184 57.8642 61.3583 57.728 64.1659V64.1899C57.8596 67.0057 59.1009 69.6548 61.1805 71.5579C63.26 73.4609 66.0086 74.463 68.825 74.3449H68.804L69.119 74.3509C71.5404 74.3509 73.8925 73.5421 75.8018 72.0529C77.7111 70.5637 79.0684 68.4794 79.658 66.1309L79.673 66.0559C79.8069 65.7324 79.8772 65.386 79.88 65.0359V17.7739C79.8804 17.3322 79.775 16.8968 79.5724 16.5043C79.3699 16.1118 79.0762 15.7735 78.716 15.5179L78.707 15.5119H78.713Z" fill="#B1C3C0"/>
</g>
<defs>
<clipPath id="clip0_649_24847">
<rect width="54" height="72" fill="white" transform="translate(24.5 15)"/>
</clipPath>
</defs>
</svg>
