<svg width="85" height="86" viewBox="0 0 85 86" fill="none" xmlns="http://www.w3.org/2000/svg">
<path d="M42.5 32.375C36.7412 32.375 31.875 37.2412 31.875 43C31.875 48.7588 36.7412 53.625 42.5 53.625C48.2588 53.625 53.125 48.7588 53.125 43C53.125 37.2412 48.2588 32.375 42.5 32.375Z" fill="#B1C3C0"/>
<path d="M70.8359 18.207H61.6772L52.0899 8.61974C51.7616 8.29022 51.3713 8.02889 50.9416 7.85079C50.5118 7.6727 50.0511 7.58136 49.5859 7.58203H35.4193C34.9541 7.58136 34.4934 7.6727 34.0636 7.85079C33.6339 8.02889 33.2436 8.29022 32.9153 8.61974L23.328 18.207H14.1693C10.2628 18.207 7.08594 21.3839 7.08594 25.2904V64.2487C7.08594 68.1552 10.2628 71.332 14.1693 71.332H70.8359C74.7424 71.332 77.9193 68.1552 77.9193 64.2487V25.2904C77.9193 21.3839 74.7424 18.207 70.8359 18.207ZM42.5026 60.707C32.9047 60.707 24.7943 52.5966 24.7943 42.9987C24.7943 33.4008 32.9047 25.2904 42.5026 25.2904C52.1005 25.2904 60.2109 33.4008 60.2109 42.9987C60.2109 52.5966 52.1005 60.707 42.5026 60.707Z" fill="#B1C3C0"/>
</svg>
