<svg width="121" height="121" viewBox="0 0 121 121" fill="none" xmlns="http://www.w3.org/2000/svg">
<path d="M112.386 67.5689C115.182 65.2208 118.356 60.9936 118.236 59.7973C118.182 59.2452 117.958 59.0739 116.578 58.6379C112.29 57.2639 107.389 57.8211 102.648 60.2449C98.8915 62.1578 96.4892 64.0334 92.5397 68.141L89.4561 71.3562L88.3132 71.7618C82.2311 73.9206 72.793 73.4319 62.9958 70.4584C61.8517 70.1017 60.9179 69.7715 60.9179 69.719C60.9046 69.6532 61.5349 69.2599 62.2965 68.8406C63.636 68.1067 63.7149 68.1068 64.7406 68.3977C70.0533 69.9574 74.8363 69.124 79.7993 65.7673C81.2173 64.8233 84.7736 61.346 84.9566 60.7416C85.1788 59.9665 84.9284 59.5849 83.9289 59.2678C78.9578 57.6298 74.2255 57.3329 70.9808 58.4448C67.1711 59.7267 65.137 61.6818 63.7367 65.3992C63.2918 66.6077 63.1869 66.739 62.386 67.2766C61.9133 67.5913 60.9546 68.1023 60.2585 68.4298C59.5625 68.7572 58.9583 69.0454 58.9321 69.0717C58.8402 69.1635 55.2233 67.7775 52.6453 66.6428C51.1721 65.9832 48.7124 64.9145 47.1866 64.2285C45.6476 63.5557 43.9508 62.83 43.4116 62.6056C41.0179 61.6816 40.4786 61.4573 40.3733 61.352C40.3206 61.2993 40.7407 61.0108 41.3054 60.7095C42.2904 60.1985 42.3955 60.1723 43.1979 60.5548C44.4739 61.1747 45.4468 61.334 47.1554 61.2842C49.9681 61.1837 53.081 59.8613 56.3893 57.3956C58.2271 56.0054 62.9513 51.3602 63.1344 50.7559C63.2128 50.4931 63.1203 50.1906 62.8833 49.9537C61.8301 48.9004 54.3506 48.5858 51.2106 49.435C46.678 50.6763 43.6462 53.3921 42.2858 57.3856C41.7102 59.0671 41.7364 59.0146 40.712 59.5387C40.2655 59.7482 39.5958 60.1283 39.2018 60.338C38.5058 60.7443 38.4007 60.7441 35.7837 59.938C32.6407 58.9734 29.8399 58.2722 27.2497 57.7816L25.4222 57.45L22.8716 57.0778C22.8716 57.0778 22.2142 56.9189 21.5174 56.8521C20.8338 56.7721 19.769 56.6784 19.1511 56.6116C13.4194 56.0239 5.19197 56.4573 1.86828 57.5165L0.935549 57.8173L1.01606 58.8163C1.13709 60.4858 1.4001 60.5651 3.83038 59.741C6.61536 58.7992 9.58513 58.3309 12.9237 58.3364C17.0772 58.3169 23.6638 59.261 23.6638 59.261L25.957 59.576C25.957 59.576 26.4378 59.5941 28.6336 60.0578C31.8944 60.7466 35.274 61.7116 38.8907 62.9925C41.3106 63.8377 41.6263 63.996 42.4557 64.8254C43.4299 65.7734 44.6285 67.2606 46.7624 70.1032C48.0666 71.8798 48.0666 71.8798 47.9103 72.7733C47.8323 73.2727 47.7823 74.8498 47.7978 76.2826C47.9439 85.1944 52.0431 92.1543 59.3573 95.9518C62.0015 97.3362 62.3953 96.9951 61.7462 93.9052C61.4812 92.643 61.2281 90.5789 61.1867 89.3565C61.0763 86.1492 60.8506 84.795 59.8732 81.928C58.2355 77.1146 54.6011 73.0603 50.6424 71.6211C49.1562 71.0798 48.8271 70.7769 47.4702 68.8951C46.9301 68.145 46.1266 67.079 45.6656 66.5131C45.2046 65.9471 44.8621 65.4471 44.9146 65.3946C44.9671 65.3421 46.1377 65.8304 47.5057 66.4635C51.5571 68.3366 56.4236 70.2899 59.9744 71.4787L63.3016 72.5751L64.8682 74.063C66.3952 75.485 66.4479 75.564 66.7784 76.708C67.9815 80.9555 69.2746 84.007 70.9217 86.5202C74.216 91.5729 79.4786 94.6309 85.3939 94.9824C87.747 95.1308 88.1275 94.724 87.2834 92.9613C85.6082 89.3703 83.3548 85.8308 80.8392 82.7642C77.2965 78.4866 72.8362 75.7322 68.5109 75.2125C67.6038 75.0927 67.2091 74.8291 66.5898 73.8949C66.2472 73.3949 66.3261 73.395 68.9294 73.925C76.6345 75.5412 83.6137 75.4344 88.8289 73.6159C90.668 72.988 90.9966 72.9492 92.8501 73.1231C98.5424 73.6713 103.509 72.8645 107.751 70.729C109.629 69.7726 110.496 69.1694 112.386 67.5689Z" fill="#727C74"/>
<path d="M113.136 59.8678C107.785 59.2413 101.021 62.3716 95.2867 68.1061C93.6201 69.7726 93.2793 70.3504 94.3824 69.695C95.3803 69.0657 105.888 64.3511 106.361 64.2993C106.545 64.2734 106.808 64.4052 106.94 64.5895C107.124 64.8264 107.085 64.9972 106.836 65.2465C106.626 65.4302 104.314 66.5305 101.713 67.7092C96.0525 70.2367 94.4503 71.0227 94.4507 71.2855C94.4511 71.5484 99.301 71.3855 101.022 71.0334C105.963 70.0689 109.679 68.0114 113.051 64.376C114.062 63.2868 114.94 62.2498 115.019 62.0659C115.137 61.7901 114.506 61.9731 112.589 62.7849C111.157 63.374 109.751 63.9895 109.462 64.1204C109.042 64.3037 108.858 64.2772 108.608 63.9481C108.213 63.448 108.449 63.0541 109.342 62.7401C109.697 62.5961 110.695 62.2034 111.535 61.8368C115.436 60.1476 115.45 60.1345 113.136 59.8678ZM79.8952 60.1681C74.4912 59.042 70.431 59.8109 67.7408 62.4747C66.901 63.3145 65.8914 64.8244 66.0625 64.9956C66.102 65.0351 66.9427 64.6684 67.9145 64.1968C69.7794 63.2535 74.2457 61.631 76.2429 61.1874C77.1363 60.9785 77.4912 60.9923 77.6756 61.2292C78.0708 61.7556 77.5326 62.1884 76.0348 62.5803C72.7897 63.4293 67.3386 65.6417 66.5381 66.4422C66.2363 66.744 66.5521 66.9548 67.5118 67.101C72.0608 67.7919 76.3303 66.4188 80.4649 62.9162C81.8169 61.7749 82.3021 61.1053 81.9861 60.7893C81.8545 60.6577 80.9077 60.3933 79.8952 60.1681ZM58.245 50.8793C54.8272 50.6371 52.2515 50.9746 49.7163 51.9562C48.324 52.506 48.1271 52.6502 46.6573 54.12C45.4238 55.3535 44.9647 55.9179 44.6111 56.6928C44.3623 57.2313 44.2447 57.6912 44.3236 57.7176C44.4157 57.7309 44.8752 57.4293 45.3609 57.0489C46.2929 56.3276 49.2473 54.4791 50.3112 53.9945C50.9679 53.6801 51.5991 53.8652 51.5999 54.3647C51.6003 54.6013 51.2984 54.8505 50.4186 55.3617C49.1185 56.0825 45.5735 58.4163 45.1797 58.7837C44.3004 59.6103 47.4156 59.6548 49.7934 58.8569C52.6703 57.8759 55.2831 56.132 58.2094 53.2057C59.561 51.8541 60.0595 51.2766 59.941 51.1581C59.8489 51.0659 59.0863 50.9332 58.245 50.8793ZM75.4066 80.2448C73.8274 79.0592 71.5251 77.7805 70.9336 77.7664C70.7496 77.7661 71.2502 78.4241 72.4089 79.7141C75.3585 82.9786 76.3596 84.2421 76.3604 84.7679C76.3611 85.1885 76.3349 85.2147 75.888 85.214C75.4674 85.2133 75.2699 85.0421 73.6895 83.1468C72.7282 82.0017 71.3192 80.4615 70.5556 79.6979L69.1601 78.3286L69.728 79.9726C71.0222 83.7076 72.8013 86.5102 75.4735 88.9462C76.8688 90.2103 77.4873 90.6451 78.7896 91.2912C80.6312 92.1881 82.0515 92.6373 82.6034 92.5068C83.234 92.3501 83.0756 91.9555 82.1149 91.231C79.3908 89.2155 78.64 88.2285 79.6384 87.9146C79.9275 87.8362 80.1905 87.9418 80.5592 88.3105C81.3754 89.1267 83.6521 90.7998 83.7833 90.6685C83.8489 90.6029 83.7565 90.353 83.5983 90.0899C83.4402 89.8268 83.1634 89.3925 83.0052 89.1031C82.0561 87.3928 79.5138 84.0633 77.9207 82.4176C77.4467 81.9174 76.3147 80.9429 75.4066 80.2448ZM52.8824 74.9897C51.7638 74.1597 51.0537 73.9483 51.7515 74.6723C52.3308 75.2516 54.0177 77.9883 54.6377 79.3432C55.3236 80.8164 55.4697 81.7499 55.0364 82.0252C54.6163 82.3137 54.2213 81.9187 53.8119 80.7482C53.2309 79.0911 50.279 74.4333 49.8058 74.4326C49.5035 74.4452 49.7075 78.6385 50.1052 80.6633C50.622 83.2272 51.9679 86.4103 53.4171 88.4368C53.8386 89.0158 54.7868 90.0952 55.524 90.8325C57.3541 92.6625 58.3272 92.9532 57.4966 91.4403C57.2725 91.0325 56.7843 89.8619 56.4146 88.8623C55.2394 85.5876 55.1588 84.5359 56.1188 84.8398C56.4081 84.9191 56.6851 85.4848 57.2927 87.3259C58.0325 89.5879 58.89 91.5215 59.1003 91.5218C59.3369 91.5222 59.4527 89.9583 59.3185 88.3019C59.0365 84.6606 57.6893 80.7152 55.7922 78.0044C54.6855 76.4516 54.33 76.0698 52.8824 74.9897Z" fill="#fbfdfc"/>
</svg>
