<svg width="121" height="121" viewBox="0 0 121 121" fill="none" xmlns="http://www.w3.org/2000/svg">
<path d="M8.10218 67.6353C5.30636 65.2872 2.13245 61.06 2.25271 59.8637C2.3062 59.3116 2.52993 59.1403 3.91076 58.7043C8.19794 57.3303 13.0997 57.8875 17.8407 60.3113C21.5968 62.2242 23.999 64.0998 27.9486 68.2074L31.0322 71.4226L32.175 71.8282C38.2572 73.987 47.6953 73.4983 57.4925 70.5248C58.6366 70.1681 59.5703 69.8379 59.5704 69.7854C59.5837 69.7196 58.9534 69.3263 58.1917 68.907C56.8523 68.1731 56.7734 68.1732 55.7477 68.4641C50.435 70.0238 45.6519 69.1904 40.689 65.8337C39.271 64.8897 35.7147 61.4124 35.5317 60.8081C35.3095 60.0329 35.5599 59.6513 36.5593 59.3342C41.5304 57.6962 46.2628 57.3993 49.5075 58.5112C53.3171 59.7931 55.3513 61.7482 56.7516 65.4656C57.1965 66.6741 57.3014 66.8054 58.1023 67.343C58.575 67.6577 59.5336 68.1687 60.2297 68.4962C60.9258 68.8236 61.53 69.1118 61.5562 69.1381C61.6481 69.2299 65.2649 67.8439 67.843 66.7093C69.3162 66.0496 71.7759 64.9809 73.3017 64.2949C74.8407 63.6221 76.5374 62.8964 77.0767 62.672C79.4704 61.748 80.0097 61.5237 80.115 61.4184C80.1677 61.3657 79.7476 61.0772 79.1829 60.7759C78.1979 60.2649 78.0928 60.2387 77.2904 60.6212C76.0144 61.2411 75.0415 61.4004 73.3328 61.3506C70.5202 61.2501 67.4073 59.9277 64.099 57.462C62.2611 56.0718 57.5369 51.4266 57.3539 50.8223C57.2755 50.5595 57.368 50.257 57.605 50.0201C58.6582 48.9668 66.1376 48.6522 69.2777 49.5014C73.8103 50.7427 76.8421 53.4585 78.2025 57.452C78.7781 59.1335 78.7519 59.081 79.7763 59.6051C80.2228 59.8146 80.8925 60.1947 81.2865 60.4044C81.9825 60.8107 82.0876 60.8105 84.7046 60.0044C87.8476 59.0398 90.6484 58.3386 93.2386 57.848L95.0661 57.5164L97.6167 57.1442C97.6167 57.1442 98.2741 56.9854 98.9709 56.9185C99.6545 56.8385 100.719 56.7448 101.337 56.678C107.069 56.0903 115.296 56.5237 118.62 57.5829L119.553 57.8837L119.472 58.8827C119.351 60.5522 119.088 60.6315 116.658 59.8074C113.873 58.8656 110.903 58.3973 107.565 58.4028C103.411 58.3833 96.8244 59.3274 96.8244 59.3274L94.5313 59.6424C94.5313 59.6424 94.0505 59.6605 91.8547 60.1242C88.5939 60.813 85.2143 61.778 81.5976 63.0589C79.1777 63.9041 78.862 64.0624 78.0326 64.8918C77.0584 65.8398 75.8598 67.327 73.7258 70.1696C72.4217 71.9462 72.4217 71.9462 72.5779 72.8397C72.656 73.3391 72.706 74.9162 72.6905 76.349C72.5444 85.2608 68.4452 92.2207 61.1309 96.0182C58.4867 97.4026 58.093 97.0615 58.7421 93.9716C59.007 92.7094 59.2602 90.6454 59.3016 89.4229C59.412 86.2156 59.6377 84.8614 60.6151 81.9944C62.2528 77.181 65.8872 73.1267 69.8459 71.6875C71.332 71.1462 71.6611 70.8433 73.018 68.9615C73.5582 68.2114 74.3617 67.1455 74.8227 66.5795C75.2836 66.0136 75.6262 65.5135 75.5737 65.461C75.5212 65.4085 74.3506 65.8968 72.9826 66.5299C68.9312 68.403 64.0647 70.3563 60.5139 71.5451L57.1867 72.6415L55.6201 74.1294C54.0931 75.5514 54.0404 75.6304 53.7099 76.7744C52.5068 81.0219 51.2137 84.0734 49.5666 86.5866C46.2723 91.6393 41.0097 94.6974 35.0943 95.0488C32.7413 95.1972 32.3608 94.7904 33.2049 93.0277C34.8801 89.4367 37.1335 85.8973 39.6491 82.8306C43.1918 78.553 47.6521 75.7986 51.9773 75.2789C52.8845 75.1591 53.2792 74.8955 53.8985 73.9613C54.2411 73.4613 54.1622 73.4614 51.5588 73.9914C43.8538 75.6076 36.8746 75.5008 31.6594 73.6823C29.8203 73.0545 29.4917 73.0156 27.6381 73.1895C21.9459 73.7377 16.9788 72.9309 12.7368 70.7954C10.8588 69.839 9.99228 69.2358 8.10218 67.6353Z" fill="#727C74"/>
<path d="M7.35245 59.9342C12.7031 59.3077 19.4671 62.438 25.2016 68.1725C26.8681 69.839 27.2089 70.4168 26.1059 69.7614C25.108 69.1321 14.6006 64.4176 14.1275 64.3658C13.9435 64.3398 13.6804 64.4716 13.5487 64.6559C13.3643 64.8928 13.4034 65.0636 13.6527 65.3129C13.8627 65.4966 16.1743 66.5969 18.7748 67.7756C24.4357 70.3031 26.038 71.0891 26.0376 71.3519C26.0372 71.6148 21.1873 71.4519 19.466 71.0999C14.5255 70.1353 10.8091 68.0778 7.43707 64.4424C6.42677 63.3532 5.54783 62.3162 5.46927 62.1323C5.35142 61.8565 5.98203 62.0395 7.89972 62.8513C9.33144 63.4404 10.7368 64.0559 11.0258 64.1868C11.4461 64.3702 11.6302 64.3436 11.8804 64.0146C12.2756 63.5144 12.0396 63.1205 11.1464 62.8065C10.7917 62.6625 9.7934 62.2698 8.95279 61.9032C5.0518 60.214 5.03868 60.2009 7.35245 59.9342ZM40.5931 60.2346C45.9971 59.1085 50.0573 59.8773 52.7474 62.5411C53.5873 63.3809 54.5969 64.8908 54.4257 65.062C54.3862 65.1015 53.5456 64.7348 52.5737 64.2632C50.7089 63.3199 46.2426 61.6974 44.2454 61.2538C43.352 61.0449 42.9971 61.0587 42.8126 61.2956C42.4175 61.822 42.9557 62.2549 44.4534 62.6467C47.6986 63.4957 53.1497 65.7081 53.9502 66.5086C54.252 66.8104 53.9362 67.0212 52.9764 67.1674C48.4275 67.8583 44.158 66.4852 40.0234 62.9826C38.6714 61.8413 38.1862 61.1717 38.5022 60.8558C38.6338 60.7241 39.5806 60.4597 40.5931 60.2346ZM62.2433 50.9457C65.6611 50.7035 68.2368 51.041 70.7719 52.0226C72.1643 52.5724 72.3612 52.7167 73.8309 54.1864C75.0644 55.4199 75.5236 55.9843 75.8772 56.7592C76.126 57.2977 76.2436 57.7576 76.1647 57.784C76.0726 57.7973 75.6131 57.4957 75.1274 57.1153C74.1953 56.394 71.241 54.5455 70.1771 54.0609C69.5204 53.7465 68.8892 53.9316 68.8884 54.4311C68.888 54.6677 69.1899 54.9169 70.0697 55.4281C71.3698 56.1489 74.9148 58.4827 75.3085 58.8501C76.1878 59.6767 73.0726 59.7212 70.6949 58.9233C67.818 57.9423 65.2052 56.1984 62.2789 53.2721C60.9273 51.9205 60.4287 51.343 60.5472 51.2245C60.6394 51.1323 61.402 50.9996 62.2433 50.9457ZM45.0816 80.3112C46.6609 79.1256 48.9632 77.8469 49.5547 77.8328C49.7387 77.8325 49.2381 78.4905 48.0793 79.7805C45.1297 83.045 44.1287 84.3085 44.1279 84.8343C44.1272 85.2549 44.1534 85.2811 44.6003 85.2804C45.0209 85.2797 45.2184 85.1085 46.7987 83.2132C47.7601 82.0681 49.1691 80.5279 49.9327 79.7643L51.3282 78.395L50.7603 80.039C49.466 83.774 47.687 86.5766 45.0148 89.0126C43.6195 90.2767 43.001 90.7115 41.6987 91.3577C39.857 92.2545 38.4367 92.7037 37.8849 92.5732C37.2543 92.4165 37.4126 92.0219 38.3733 91.2974C41.0974 89.2819 41.8483 88.2949 40.8498 87.981C40.5608 87.9027 40.2978 88.0082 39.9291 88.3769C39.1129 89.1931 36.8362 90.8662 36.705 90.7349C36.6394 90.6693 36.7318 90.4194 36.8899 90.1563C37.0481 89.8932 37.3248 89.459 37.483 89.1695C38.4322 87.4593 40.9745 84.1297 42.5676 82.4841C43.0416 81.9838 44.1736 81.0093 45.0816 80.3112ZM67.6059 75.0561C68.7245 74.2262 69.4346 74.0147 68.7368 74.7387C68.1575 75.318 66.4706 78.0547 65.8506 79.4096C65.1647 80.8828 65.0186 81.8163 65.4519 82.0916C65.872 82.3801 66.267 81.9851 66.6764 80.8146C67.2574 79.1575 70.2093 74.4997 70.6825 74.499C70.9848 74.5116 70.7807 78.7049 70.3831 80.7297C69.8663 83.2936 68.5204 86.4767 67.0712 88.5032C66.6496 89.0822 65.7015 90.1616 64.9642 90.8989C63.1342 92.7289 62.1611 93.0197 62.9916 91.5067C63.2158 91.0989 63.704 89.9283 64.0737 88.9287C65.2489 85.654 65.3295 84.6023 64.3694 84.9062C64.0801 84.9855 63.8032 85.5512 63.1956 87.3923C62.4558 89.6543 61.5983 91.5879 61.3879 91.5882C61.1514 91.5886 61.0356 90.0247 61.1698 88.3683C61.4518 84.727 62.7989 80.7816 64.6961 78.0708C65.8028 76.518 66.1583 76.1362 67.6059 75.0561Z" fill="#fbfdfc"/>
</svg>
